PathFileType	4	(X/Y/Z)	s07c0001.trc
DataRate	CameraRate	NumFrames	NumMarkers	Units	OrigDataRate	OrigDataStartFrame	OrigNumFrames
200	200	6	49	mm	200	750	2000
Frame#	Time	racr			lacr			c7			jug			rlel			rdr			llel			ldr			s2			lic			ric			lasi			rasi			rpsi			lpsi			rgt			lgt			rth1			rth2			rth3			rth4			rlfc			rmfc			rsh1			rsh2			rsh3			rsh4			rlmal			rmmal			rcal			rtoe			rmt5			rmt1			lth1			lth2			lth4			lth3			llfc			lmfc			lsh1			lsh2			lsh3			lsh4			llmal			lmmal			lcal			ltoe			lmt1			lmt5			
		X1	Y1	Z1	X2	Y2	Z2	X3	Y3	Z3	X4	Y4	Z4	X5	Y5	Z5	X6	Y6	Z6	X7	Y7	Z7	X8	Y8	Z8	X9	Y9	Z9	X10	Y10	Z10	X11	Y11	Z11	X12	Y12	Z12	X13	Y13	Z13	X14	Y14	Z14	X15	Y15	Z15	X16	Y16	Z16	X17	Y17	Z17	X18	Y18	Z18	X19	Y19	Z19	X20	Y20	Z20	X21	Y21	Z21	X22	Y22	Z22	X23	Y23	Z23	X24	Y24	Z24	X25	Y25	Z25	X26	Y26	Z26	X27	Y27	Z27	X28	Y28	Z28	X29	Y29	Z29	X30	Y30	Z30	X31	Y31	Z31	X32	Y32	Z32	X33	Y33	Z33	X34	Y34	Z34	X35	Y35	Z35	X36	Y36	Z36	X37	Y37	Z37	X38	Y38	Z38	X39	Y39	Z39	X40	Y40	Z40	X41	Y41	Z41	X42	Y42	Z42	X43	Y43	Z43	X44	Y44	Z44	X45	Y45	Z45	X46	Y46	Z46	X47	Y47	Z47	X48	Y48	Z48	X49	Y49	Z49	
750	3.7500	169.132095	1567.584717	563.415222	195.749527	1569.317505	193.502548	137.021606	1607.456543	375.153625	258.000061	1516.501587	384.804108	236.762909	1221.673584	692.255615	387.476227	983.550110	802.922974	272.003784	1216.114502	94.174271	426.809814	979.080200	-10.644416	106.139709	1059.989258	365.219208	251.030838	1143.747681	228.964920	238.165344	1131.913574	533.207458	316.501526	1076.625000	262.115082	286.947754	1073.752319	525.553772	119.287285	1093.561035	421.943085	134.293564	1102.207886	309.698425	204.029953	975.766541	561.597473	235.659180	973.770264	211.517639	213.824661	847.388672	564.099731	237.531006	762.608398	556.395508	217.905716	679.584656	547.337646	273.820770	764.846008	548.743469	217.531479	538.137756	512.981873	226.772995	527.341736	417.228577	178.713058	400.043365	529.702515	196.997940	314.177185	510.093079	169.043579	232.202942	503.946838	220.046402	318.354095	477.650696	158.734573	91.485138	488.772125	200.901657	105.613922	411.245483	113.785507	41.114437	447.018188	395.221954	86.391281	505.256317	311.004761	36.291008	556.984314	328.029663	44.068939	449.545013	246.656616	856.413635	197.401001	270.428680	771.876526	204.518173	305.020935	773.140869	218.857147	248.047989	686.248535	212.452805	244.145279	531.453552	240.626236	238.797058	515.456543	328.581512	210.258484	396.190948	215.648071	227.356720	314.027557	236.847488	200.986618	226.803162	232.627563	237.602661	317.357666	276.965912	190.616379	90.897011	243.500076	224.945831	111.765625	324.721130	141.549881	37.497463	280.132416	423.068695	92.994293	249.183334	359.030975	47.745838	297.238464	345.595795	52.982624	192.461472	
751	3.7550	169.108734	1567.597534	563.394714	195.732407	1569.320190	193.478745	136.991714	1607.454590	375.112976	257.960175	1516.505249	384.766418	236.748062	1221.694702	692.238586	387.480011	983.577454	802.923096	271.990845	1216.114746	94.170074	426.777618	979.063354	-10.613752	106.109314	1059.992310	365.193939	251.000565	1143.761841	228.944351	238.149750	1131.911255	533.170044	316.476898	1076.629272	262.081207	286.926239	1073.756226	525.526428	119.276863	1093.560425	421.925598	134.272003	1102.217163	309.681213	204.000076	975.785706	561.573975	235.633606	973.760925	211.485397	213.820786	847.396179	564.059570	237.532059	762.619873	556.396240	217.906570	679.579102	547.313110	273.812378	764.838257	548.716064	217.530945	538.128845	512.957458	226.761703	527.342896	417.203766	178.723190	400.063477	529.691650	197.012024	314.180206	510.086029	169.058044	232.204239	503.935120	220.045425	318.361176	477.646210	158.756302	91.489761	488.771362	200.905563	105.611992	411.251160	113.785446	41.147717	446.994568	395.220581	86.388260	505.261597	311.002625	36.291176	556.978271	328.041534	44.055824	449.538239	246.630096	856.414795	197.373184	270.428040	771.870361	204.521149	304.994324	773.122559	218.835663	248.042892	686.231873	212.435226	244.132996	531.440674	240.630356	238.799744	515.458618	328.572418	210.257935	396.178558	215.660355	227.355255	314.036560	236.842422	200.986099	226.794525	232.613724	237.597198	317.337646	276.968689	190.631790	90.884399	243.508102	224.929047	111.758522	324.713470	141.541428	37.491711	280.162659	423.068817	92.979042	249.180603	358.969360	47.693947	297.198273	345.592133	52.974693	192.476791	
752	3.7600	169.069290	1567.613647	563.383240	195.716019	1569.322021	193.440277	136.970901	1607.453125	375.083984	257.947327	1516.509521	384.762604	236.737534	1221.721191	692.265015	387.501007	983.608215	802.928711	271.988953	1216.099854	94.180283	426.764099	979.038513	-10.570212	106.091576	1059.985596	365.172760	250.962143	1143.757935	228.914062	238.128967	1131.913208	533.157715	316.430176	1076.631958	262.065399	286.904785	1073.748901	525.494507	119.281258	1093.549683	421.892090	134.246109	1102.218872	309.658234	204.017822	975.770630	561.549255	235.607742	973.759338	211.462387	213.817932	847.390930	564.040222	237.523499	762.620117	556.363281	217.903168	679.575684	547.285217	273.809753	764.839172	548.687439	217.540665	538.132446	512.931335	226.761719	527.342834	417.203766	178.725708	400.050995	529.688477	197.007462	314.183716	510.077972	169.042709	232.194717	503.934326	220.049347	318.366394	477.638885	158.757477	91.488403	488.772705	200.903000	105.616600	411.231018	113.774612	41.130520	447.005951	395.219971	86.403473	505.259918	311.010681	36.294666	556.995972	328.029572	44.049622	449.549835	246.594681	856.435730	197.331757	270.401947	771.868713	204.496292	304.974243	773.133423	218.803146	248.015915	686.236511	212.416656	244.116165	531.424683	240.611069	238.792053	515.458679	328.552643	210.240906	396.185333	215.640213	227.339005	314.034424	236.837143	200.968109	226.797333	232.623901	237.581299	317.334503	276.959320	190.614502	90.891624	243.502029	224.944550	111.755714	324.722626	141.554611	37.504593	280.126251	423.053101	92.998772	249.171982	358.978546	47.703938	297.219360	345.590210	52.967953	192.483002	
753	3.7650	169.050735	1567.609619	563.346130	195.701706	1569.322144	193.410217	136.923676	1607.444458	375.056519	257.926178	1516.515137	384.732574	236.742188	1221.711792	692.245483	387.498444	983.647827	802.948669	271.968170	1216.087524	94.177856	426.736847	979.014343	-10.538606	106.073868	1059.988281	365.151489	250.922363	1143.772339	228.889603	238.119934	1131.919067	533.121704	316.434967	1076.647095	262.034790	286.888824	1073.759033	525.459778	119.220596	1093.556519	421.889130	134.226379	1102.211670	309.639160	203.968338	975.786987	561.514648	235.590225	973.749512	211.433807	213.792480	847.408447	564.012573	237.520081	762.607788	556.328857	217.908188	679.586426	547.280090	273.811127	764.846008	548.657043	217.543991	538.138855	512.932922	226.770355	527.340576	417.177277	178.715256	400.050629	529.675781	197.013596	314.188080	510.064392	169.045319	232.205429	503.940186	220.051758	318.348969	477.632355	158.760300	91.476814	488.779175	200.903610	105.609253	411.244049	113.778000	41.133533	447.020844	395.223358	86.376190	505.263123	311.013977	36.289772	556.974915	328.031097	44.047764	449.545258	246.557068	856.431580	197.295395	270.374847	771.870728	204.472977	304.951355	773.115051	218.777481	247.996857	686.244507	212.404053	244.118225	531.436646	240.601456	238.774857	515.458679	328.542938	210.232147	396.192566	215.615601	227.341858	314.020844	236.815140	200.962387	226.800217	232.599838	237.575729	317.343140	276.947845	190.599716	90.902679	243.486069	224.932846	111.765266	324.718292	141.544937	37.490570	280.150787	423.068604	92.991379	249.180893	358.984161	47.722725	297.223877	345.590668	52.968624	192.482040	
754	3.7700	169.010513	1567.619995	563.336853	195.680664	1569.330444	193.379425	136.896027	1607.449219	375.008423	257.888397	1516.513550	384.720581	236.722458	1221.740234	692.249023	387.501465	983.680725	802.962646	271.949463	1216.091431	94.196266	426.729828	978.988464	-10.501967	106.056229	1059.981567	365.130310	250.937439	1143.761108	228.856018	238.116913	1131.918457	533.095886	316.408905	1076.629639	262.000092	286.866669	1073.752197	525.418091	119.231163	1093.556885	421.855011	134.226166	1102.203003	309.602570	203.986282	975.783569	561.501465	235.559784	973.763672	211.408783	213.785721	847.414368	563.984070	237.510513	762.623779	556.316711	217.906113	679.588318	547.256958	273.807343	764.848267	548.618408	217.550797	538.129639	512.895325	226.770065	527.340820	417.177185	178.714859	400.073334	529.656616	197.017746	314.182495	510.038147	169.039795	232.207291	503.917755	220.051559	318.358215	477.624664	158.745850	91.483109	488.770782	200.888107	105.604370	411.246429	113.784454	41.106762	447.017365	395.224274	86.396599	505.257721	311.019043	36.292542	556.980713	328.027985	44.062515	449.532715	246.536407	856.424561	197.264969	270.375916	771.853271	204.470535	304.935486	773.143188	218.764313	247.955368	686.237549	212.382935	244.109619	531.440613	240.587997	238.777054	515.459900	328.528961	210.225418	396.170471	215.606552	227.321747	314.027954	236.813202	200.964157	226.786331	232.599228	237.569580	317.326935	276.947662	190.614212	90.890320	243.498108	224.943588	111.764786	324.727905	141.548386	37.507336	280.125153	423.047852	92.968796	249.164261	358.985687	47.722786	297.224731	345.572937	52.978783	192.468109	
755	3.7750	168.973633	1567.622681	563.308899	195.681137	1569.321045	193.365921	136.862793	1607.448364	374.990814	257.856903	1516.510620	384.703705	236.720551	1221.740356	692.230652	387.516144	983.740234	802.968872	271.947815	1216.093262	94.177460	426.718872	978.967957	-10.474083	106.034462	1059.983154	365.104126	250.919525	1143.764526	228.822845	238.092636	1131.919312	533.072510	316.393494	1076.643799	261.965302	286.856537	1073.749756	525.404663	119.237709	1093.555786	421.820251	134.195572	1102.211426	309.569641	203.961777	975.794678	561.470764	235.522614	973.763794	211.389862	213.778259	847.409790	563.974792	237.509018	762.610840	556.297424	217.899368	679.589355	547.239075	273.785065	764.848877	548.611267	217.525772	538.118713	512.875366	226.756271	527.351135	417.154266	178.722168	400.054504	529.640625	197.003204	314.181152	510.031769	169.054672	232.211380	503.914917	220.047745	318.347565	477.605621	158.760590	91.468224	488.777283	200.896973	105.611778	411.237152	113.816658	41.105610	447.018280	395.221344	86.411308	505.261719	311.009827	36.293774	556.990112	328.039917	44.053123	449.522217	246.534409	856.421570	197.270157	270.347198	771.848206	204.469376	304.917603	773.119812	218.735977	247.953506	686.226868	212.368744	244.088852	531.439636	240.573639	238.761337	515.460205	328.517029	210.203262	396.175690	215.604187	227.324295	314.036530	236.813660	200.951263	226.792892	232.591644	237.569077	317.343384	276.929962	190.617584	90.895721	243.490570	224.935593	111.764244	324.714355	141.568329	37.510880	280.141418	423.038666	92.977814	249.174927	358.931000	47.680748	297.204407	345.585419	52.976341	192.479233	
